<svg width="142" height="142" viewBox="0 0 142 142" fill="none" xmlns="http://www.w3.org/2000/svg">
<path d="M51.6568 24.7105H89.7646L116.711 51.6565V89.7644L89.7646 116.71H51.6568L24.7101 89.7637V51.6572L51.6568 24.7105Z" stroke="black" stroke-width="8" stroke-linejoin="round"/>
<path d="M75.6406 35.8923L74.9588 86.0741H67.0497L66.3679 35.8923H75.6406ZM71.0043 106.256C69.3224 106.256 67.8793 105.654 66.6747 104.449C65.4702 103.245 64.8679 101.801 64.8679 100.12C64.8679 98.4377 65.4702 96.9945 66.6747 95.79C67.8793 94.5854 69.3224 93.9832 71.0043 93.9832C72.6861 93.9832 74.1293 94.5854 75.3338 95.79C76.5384 96.9945 77.1406 98.4377 77.1406 100.12C77.1406 101.233 76.8565 102.256 76.2884 103.188C75.7429 104.12 75.0043 104.87 74.0724 105.438C73.1634 105.983 72.1406 106.256 71.0043 106.256Z" fill="black"/>
</svg>
